<svg xmlns="http://www.w3.org/2000/svg" width="256" height="256" viewBox="0 0 256 256" role="img" aria-label="Markdown Preview Studio icon">
  <defs>
    <linearGradient id="bg" x1="42" y1="32" x2="218" y2="226" gradientUnits="userSpaceOnUse">
      <stop offset="0" stop-color="#2563eb"/>
      <stop offset="0.52" stop-color="#7c3aed"/>
      <stop offset="1" stop-color="#14b8a6"/>
    </linearGradient>
    <linearGradient id="paper" x1="72" y1="58" x2="188" y2="204" gradientUnits="userSpaceOnUse">
      <stop offset="0" stop-color="#ffffff"/>
      <stop offset="1" stop-color="#eef2ff"/>
    </linearGradient>
  </defs>
  <rect width="256" height="256" rx="58" fill="#101827"/>
  <rect x="20" y="20" width="216" height="216" rx="48" fill="url(#bg)"/>
  <rect x="52" y="48" width="152" height="160" rx="22" fill="url(#paper)"/>
  <path d="M76 86h104M76 118h84M76 150h70" fill="none" stroke="#475569" stroke-width="12" stroke-linecap="round"/>
  <path d="M78 184V96h20l30 42 30-42h20v88h-24v-47l-26 35-26-35v47H78z" fill="#111827"/>
  <path d="M176 157l30 27-30 27v-18h-34v-18h34v-18z" fill="#14b8a6"/>
</svg>
